<?xml version="1.0" standalone="no"?>
<!DOCTYPE svg PUBLIC "-//W3C//DTD SVG 20010904//EN"
 "http://www.w3.org/TR/2001/REC-SVG-20010904/DTD/svg10.dtd">
<svg version="1.0" xmlns="http://www.w3.org/2000/svg"
 width="885.000000pt" height="1280.000000pt" viewBox="0 0 885.000000 1280.000000"
 preserveAspectRatio="xMidYMid meet">
<metadata>
Created by potrace 1.15, written by Peter Selinger 2001-2017
</metadata>
<g transform="translate(0.000000,1280.000000) scale(0.100000,-0.100000)"
fill="#000000" stroke="none">
<path d="M593 12786 c-92 -18 -177 -45 -289 -94 l-89 -38 3 -65 c11 -212 84
-441 198 -616 55 -84 225 -250 325 -316 48 -32 129 -79 180 -106 89 -47 368
-166 374 -159 1 2 27 167 57 368 l55 365 -34 39 c-78 93 -99 185 -86 379 7
111 6 130 -7 137 -34 18 -230 80 -300 95 -104 23 -297 28 -387 11z"/>
<path d="M1634 12296 c-57 -29 -164 -130 -164 -155 0 -9 -16 -185 -35 -391
-37 -393 -29 -340 -709 -4747 -45 -293 -79 -533 -75 -533 4 0 65 22 136 49
l128 49 18 104 c9 56 78 492 152 968 75 476 158 1007 185 1180 63 403 196
1253 261 1665 94 602 128 810 144 869 37 141 105 286 300 642 l40 71 -20 38
c-32 58 -106 147 -153 179 -60 43 -138 47 -208 12z"/>
<path d="M1941 11723 c-73 -75 -129 -175 -155 -278 -17 -67 -42 -253 -35 -260
9 -8 244 -64 399 -94 85 -17 360 -64 610 -106 533 -88 807 -140 1055 -200 827
-200 1308 -490 1473 -887 126 -303 62 -714 -178 -1138 l-50 -89 269 -438 c147
-241 272 -437 277 -436 9 2 768 294 770 297 1 0 -69 127 -156 281 -144 255
-157 282 -144 300 153 222 265 427 313 572 77 232 97 420 65 631 -67 451 -381
872 -914 1226 -219 146 -496 287 -695 354 -102 35 -219 46 -880 82 -928 52
-1339 100 -1803 215 -79 19 -146 35 -149 35 -3 0 -35 -30 -72 -67z"/>
<path d="M7485 8813 c-154 -3 -409 -19 -600 -39 -150 -15 -474 -60 -480 -66
-1 -2 161 -91 361 -198 200 -107 364 -197 364 -200 0 -3 -184 -76 -408 -162
-450 -173 -819 -316 -1472 -568 -239 -92 -563 -218 -720 -278 -157 -61 -613
-237 -1015 -392 -401 -155 -810 -313 -908 -351 -98 -38 -185 -69 -193 -69 -7
0 -150 76 -318 169 l-304 170 -54 -21 c-52 -20 -1392 -537 -1620 -625 -65 -25
-118 -49 -118 -52 0 -3 152 -58 339 -121 l339 -115 433 -368 c331 -280 439
-366 454 -362 11 2 186 69 388 147 l368 143 128 288 c71 159 132 292 137 297
5 4 137 58 294 118 267 103 1399 540 2025 782 154 59 609 235 1010 390 402
155 856 331 1010 390 425 164 388 151 380 132 -11 -27 -275 -775 -275 -778 0
-5 239 167 375 270 353 266 770 637 1078 959 236 247 371 397 364 404 -18 18
-417 69 -677 87 -225 16 -481 23 -685 19z"/>
<path d="M6475 7469 c-55 -22 -224 -87 -375 -145 -151 -59 -276 -107 -277
-108 -3 -2 185 -986 191 -1002 3 -7 42 -24 88 -39 279 -92 528 -235 688 -395
334 -332 357 -780 70 -1385 -172 -364 -431 -741 -1020 -1485 -325 -410 -431
-550 -521 -687 l-69 -107 57 -50 c175 -157 303 -216 469 -216 l81 0 58 88 c81
122 295 406 405 537 196 234 416 469 901 960 475 482 496 508 595 735 179 414
274 831 275 1205 0 302 -47 525 -156 740 -194 379 -560 631 -1089 750 l-100
22 -71 309 c-51 218 -76 310 -86 311 -8 1 -59 -16 -114 -38z"/>
<path d="M580 5858 c-46 -74 -40 -146 20 -264 l44 -84 1205 -1008 c663 -555
1665 -1393 2226 -1862 647 -541 1134 -956 1332 -1136 l312 -284 89 0 c140 0
211 35 253 125 22 48 25 171 5 255 -11 49 -16 56 -47 67 -19 7 -119 42 -224
78 -211 74 -395 158 -498 229 -38 26 -710 585 -1495 1244 -785 658 -1823 1529
-2306 1934 -484 406 -883 738 -888 738 -5 0 -17 -15 -28 -32z"/>
<path d="M671 5029 c-84 -144 -151 -262 -149 -264 5 -5 608 229 611 237 2 5
-49 53 -289 270 l-21 18 -152 -261z"/>
<path d="M4994 1543 c-134 -283 -186 -455 -203 -675 -15 -183 13 -343 87 -517
49 -113 95 -187 218 -350 6 -7 217 70 288 106 201 100 373 284 492 525 l38 77
-110 113 c-130 133 -163 191 -171 302 l-6 71 -234 190 c-129 105 -259 209
-288 233 l-55 43 -56 -118z"/>
</g>
</svg>
